<?xml version="1.0" standalone="no"?>
<!DOCTYPE svg PUBLIC "-//W3C//DTD SVG 20010904//EN"
 "http://www.w3.org/TR/2001/REC-SVG-20010904/DTD/svg10.dtd">
<svg version="1.0" xmlns="http://www.w3.org/2000/svg"
 width="600.000000pt" height="600.000000pt" viewBox="0 0 600.000000 600.000000"
 preserveAspectRatio="xMidYMid meet" fill="#ffffff">

<g transform="translate(0.000000,600.000000) scale(0.100000,-0.100000)"
fill="#ffffff" stroke="none">
<path d="M1599 4845 c-14 -14 -39 -15 -218 -4 -169 9 -205 9 -216 -2 -8 -8
-48 -147 -91 -309 -42 -162 -103 -396 -136 -520 -32 -124 -83 -320 -113 -437
-30 -117 -79 -284 -109 -371 -35 -104 -51 -163 -45 -169 12 -12 -60 -295 -73
-287 -4 3 -8 14 -8 25 0 10 -4 19 -10 19 -5 0 -10 -4 -10 -9 0 -5 -3 -16 -6
-25 -4 -11 -1 -16 10 -16 24 0 21 -52 -9 -155 -34 -115 -48 -142 -83 -149 -26
-6 -31 -17 -74 -146 l-46 -140 24 -6 c28 -7 29 -15 10 -87 -8 -29 -17 -88 -21
-130 -7 -69 -10 -78 -30 -83 -13 -3 -26 -13 -29 -21 -8 -19 41 -219 60 -249 8
-12 30 -25 48 -28 24 -5 41 -17 59 -45 15 -22 44 -54 66 -71 30 -24 41 -42 46
-71 4 -21 10 -38 13 -37 4 1 23 -5 44 -14 35 -16 101 -31 186 -42 39 -6 43 -4
52 19 9 24 13 25 90 25 74 0 87 -3 148 -36 60 -32 73 -35 122 -30 30 3 160 15
289 27 213 19 235 19 243 5 8 -13 32 -16 152 -16 135 0 144 1 149 20 5 18 13
20 94 20 132 0 191 -9 198 -30 5 -16 21 -18 140 -19 124 -2 136 0 152 19 16
18 29 20 153 20 123 0 137 -2 153 -20 15 -18 29 -20 153 -20 127 0 136 1 141
20 4 16 14 20 50 20 71 0 237 -21 247 -31 6 -5 40 -9 78 -9 37 0 131 -9 210
-20 79 -11 217 -29 308 -39 187 -22 833 -105 985 -126 89 -12 103 -12 124 2
73 47 184 178 231 273 12 25 47 78 78 118 30 40 53 74 51 76 -2 2 -14 8 -26
15 -22 11 -22 12 -6 46 18 37 42 53 44 30 3 -28 4 -33 10 -40 4 -3 10 6 13 20
4 14 28 52 53 83 57 70 116 193 137 289 29 129 22 202 -38 437 -30 116 -85
327 -121 470 -36 142 -98 378 -136 525 l-71 266 -11 277 c-7 152 -15 279 -18
282 -3 3 -30 10 -59 16 -30 6 -57 15 -60 20 -4 6 -35 123 -70 260 -34 138 -69
255 -76 261 -10 8 -60 8 -186 0 -95 -6 -213 -13 -263 -16 -49 -3 -205 -13
-345 -22 -331 -22 -699 -22 -1135 0 -192 10 -449 22 -570 28 -713 32 -837 40
-950 59 -66 11 -122 20 -125 20 -3 0 -13 -7 -21 -15z m1574 -159 c1005 -46
1830 -85 1832 -88 3 -3 93 -590 200 -1305 l195 -1300 -15 -84 c-18 -105 -77
-228 -144 -301 l-48 -52 -2039 27 c-1121 15 -2126 30 -2233 34 l-194 6 -51 41
c-28 23 -68 66 -88 96 -38 57 -88 190 -88 236 0 14 157 632 349 1372 193 741
353 1359 356 1375 7 26 9 27 74 27 36 0 889 -38 1894 -84z m2031 -187 c31
-122 56 -223 54 -224 -2 -2 -31 2 -65 7 -72 12 -63 -7 -94 208 -12 85 -28 161
-35 169 -11 13 -111 21 -379 32 -59 3 252 25 376 27 l86 2 57 -221z m151 -317
c39 -7 40 -9 42 -52 5 -88 53 -1579 58 -1790 2 -118 2 -208 0 -200 -3 8 -72
467 -155 1020 -83 553 -153 1017 -156 1031 l-5 26 88 -13 c48 -8 106 -18 128
-22z m301 -1437 c145 -565 146 -571 141 -655 -7 -111 -40 -207 -102 -300 -49
-74 -51 -75 -92 -75 -50 0 -63 19 -17 23 25 2 36 13 62 55 48 81 49 85 10 92
-18 3 -50 7 -70 8 -21 1 -38 4 -38 7 0 3 -11 304 -25 670 -24 644 -28 776 -20
755 2 -5 70 -266 151 -580z m-189 -667 c-3 -8 -6 -5 -6 6 -1 11 2 17 5 13 3
-3 4 -12 1 -19z m12 -419 c1 -144 -14 -219 -61 -314 -28 -55 -110 -157 -153
-189 l-36 -28 -972 127 c-535 69 -1204 156 -1487 193 -481 63 -508 67 -415 70
78 2 236 -15 720 -77 341 -44 961 -123 1378 -176 l758 -97 30 28 c16 15 26 30
23 33 -3 3 -40 11 -82 18 -155 23 -335 55 -682 123 -363 70 -485 91 -648 111
-51 7 -91 13 -89 15 2 2 307 0 678 -6 371 -5 698 -10 728 -10 52 0 57 2 99 46
92 96 169 244 188 359 l9 50 6 -70 c4 -38 7 -131 8 -206z m-3919 -136 c41 -3
71 -7 65 -9 -5 -2 -91 -13 -190 -24 -99 -12 -187 -23 -195 -24 -8 -1 -39 -6
-68 -11 -29 -4 -55 -11 -57 -15 -7 -12 62 -69 93 -77 15 -3 250 13 522 36 352
30 515 40 563 35 37 -4 66 -8 65 -9 -2 -2 -261 -27 -577 -55 -571 -52 -575
-53 -610 -34 -52 28 -143 115 -170 164 l-23 42 253 -6 c140 -4 288 -9 329 -13z"/>
<path d="M1460 4635 c0 -14 1 -25 3 -25 13 -2 580 -30 605 -30 27 0 32 3 32
25 0 31 -2 31 -315 45 -345 14 -325 15 -325 -15z"/>
<path d="M1460 4546 c0 -23 5 -25 63 -30 34 -3 772 -38 1641 -77 1652 -75
1595 -74 1596 -32 0 7 -30 13 -82 17 -92 7 -3126 146 -3182 146 -31 0 -36 -3
-36 -24z"/>
<path d="M1566 4433 c-13 -13 -5 -22 22 -25 15 -2 26 -7 25 -11 0 -4 -33 -71
-73 -148 l-71 -140 -33 7 c-25 4 -35 2 -39 -9 -5 -12 5 -17 46 -22 29 -4 70
-5 91 -3 48 4 62 28 17 28 l-31 0 34 68 c19 37 45 86 58 110 l25 43 92 -136
93 -136 46 3 46 3 81 155 81 155 38 3 c23 2 36 8 33 15 -2 8 -35 13 -90 15
-73 2 -87 0 -87 -13 0 -9 9 -15 25 -15 14 0 25 -2 25 -5 0 -17 -102 -205 -109
-201 -4 3 -45 60 -90 126 -46 67 -88 123 -95 125 -23 7 -154 13 -160 8z"/>
<path d="M2216 4403 c-13 -13 -5 -22 22 -25 15 -2 26 -7 26 -11 -1 -5 -34 -71
-74 -148 l-73 -139 -32 6 c-24 4 -34 2 -38 -10 -7 -18 24 -23 208 -31 72 -3
158 -8 192 -11 l61 -6 21 40 c11 22 17 42 14 46 -15 14 -41 4 -52 -20 l-12
-27 -106 6 c-58 3 -108 8 -110 11 -3 3 11 34 31 70 39 70 40 71 119 60 41 -6
45 -9 36 -25 -8 -16 -6 -19 15 -19 24 0 49 33 84 113 2 4 -7 7 -21 7 -15 0
-28 -8 -34 -22 -8 -19 -16 -21 -74 -19 -35 1 -65 4 -67 6 -2 2 8 26 22 54 26
51 27 51 75 51 26 0 76 -3 109 -6 55 -6 60 -9 52 -25 -14 -26 -13 -29 13 -29
17 0 28 10 41 36 9 20 15 38 13 40 -2 3 -80 9 -173 14 -93 5 -194 12 -225 15
-31 2 -59 2 -63 -2z"/>
<path d="M2718 4364 c-14 -14 -8 -24 13 -24 21 0 21 -2 15 -137 -4 -76 -9
-150 -12 -165 -5 -26 -3 -28 24 -28 17 0 37 -2 44 -5 9 -4 64 42 142 116 l128
122 -7 -126 -8 -127 49 0 49 0 155 155 c125 126 159 155 178 152 12 -2 25 0
29 5 10 18 -21 28 -89 28 -53 0 -68 -3 -68 -14 0 -8 11 -16 25 -18 23 -3 17
-12 -80 -108 l-105 -105 5 95 c3 52 8 109 10 127 3 31 3 31 -43 35 l-47 4
-119 -113 c-66 -62 -121 -111 -123 -110 -1 2 0 49 4 105 l6 101 30 3 c17 2 32
9 35 16 3 9 -15 12 -65 12 -37 0 -90 3 -118 6 -27 3 -53 3 -57 -2z"/>
<path d="M4100 4318 c0 -22 5 -28 23 -28 12 0 155 -7 317 -15 162 -8 298 -15
303 -15 4 0 7 14 7 30 l0 30 -82 1 c-46 0 -192 6 -326 12 l-242 12 0 -27z"/>
<path d="M3619 4304 c-30 -9 -59 -28 -83 -54 -64 -71 -44 -110 76 -141 101
-26 128 -39 128 -59 0 -34 -38 -54 -109 -58 -86 -5 -141 15 -141 52 0 16 -7
27 -21 31 -24 8 -21 11 -47 -42 l-21 -41 52 -14 c29 -7 104 -13 172 -13 106 0
125 3 163 23 46 24 82 73 82 109 0 37 -37 60 -131 83 -93 23 -114 37 -105 68
9 27 48 42 111 42 72 0 104 -14 118 -50 16 -42 42 -38 67 10 l20 40 -22 5
c-93 21 -122 24 -188 24 -41 0 -96 -7 -121 -15z"/>
<path d="M4440 4133 c-107 -40 -132 -42 -195 -14 -40 18 -49 19 -83 7 -91 -33
-110 -49 -72 -61 11 -3 28 -19 39 -34 l20 -28 -52 -36 c-56 -39 -147 -127
-132 -127 34 0 125 47 158 81 21 22 42 37 46 35 4 -3 18 -40 31 -82 16 -56 21
-91 17 -130 -8 -77 6 -84 82 -37 46 29 60 43 56 57 -6 28 19 80 71 146 26 33
48 60 49 60 1 0 22 -7 46 -15 45 -16 92 -52 84 -65 -3 -4 -44 -27 -92 -51
l-87 -44 167 -3 167 -2 67 34 68 35 -85 1 c-47 1 -103 5 -125 9 l-40 8 30 13
c40 18 65 40 65 57 0 20 -55 50 -132 74 l-68 20 30 41 c17 22 30 52 30 65 0
19 -5 23 -32 23 -18 -1 -76 -17 -128 -37z m24 -56 c-4 -12 -14 -15 -37 -10
-59 11 -64 20 -16 30 48 11 63 5 53 -20z m-69 -89 c2 -2 -12 -20 -32 -41 -19
-21 -36 -37 -37 -35 -3 3 -36 99 -36 104 0 3 101 -24 105 -28z"/>
<path d="M1320 3926 c0 -22 6 -25 43 -30 42 -5 2403 -117 2465 -116 27 0 32 4
32 24 0 23 -4 24 -82 30 -82 6 -2392 116 -2435 116 -18 0 -23 -6 -23 -24z"/>
<path d="M1376 3754 c-20 -19 -320 -1284 -308 -1296 17 -17 1874 -90 1889 -75
7 7 46 267 92 622 44 336 83 621 85 635 3 14 1 32 -4 39 -7 12 -664 45 -1654
83 -56 2 -94 -1 -100 -8z m931 -87 c413 -18 754 -35 758 -38 6 -7 -146 -1174
-155 -1188 -5 -8 -1765 61 -1774 69 -4 4 265 1138 279 1178 6 16 16 16 892
-21z"/>
<path d="M3375 3451 c-4 -18 -5 -34 -3 -35 1 -2 346 -6 766 -10 793 -8 779 -8
754 31 -11 18 -364 32 -978 40 l-532 6 -7 -32z"/>
<path d="M3355 3289 c-4 -17 -5 -32 -3 -33 1 -2 356 -6 788 -10 l786 -6 -4 33
-4 34 -496 6 c-272 4 -622 7 -778 7 l-282 0 -7 -31z"/>
<path d="M3335 3129 c-4 -17 -5 -32 -3 -33 1 -2 367 -6 811 -9 l808 -5 -3 31
-3 32 -340 6 c-187 3 -548 7 -802 8 l-461 1 -7 -31z"/>
<path d="M3317 2970 c-4 -18 -6 -34 -5 -35 2 -2 378 -5 836 -7 l834 -5 -6 30
c-3 17 -8 32 -10 34 -1 2 -372 6 -823 10 l-820 6 -6 -33z"/>
<path d="M3296 2810 c-3 -18 -5 -34 -4 -36 2 -1 389 -4 860 -6 l857 -3 -6 30
c-3 16 -7 31 -8 33 -2 2 -383 6 -847 9 l-845 6 -7 -33z"/>
<path d="M3277 2648 c-2 -18 -4 -34 -3 -35 0 -1 396 -3 879 -5 l877 -3 0 31 0
31 -302 6 c-166 4 -559 7 -873 7 l-573 0 -5 -32z"/>
<path d="M3258 2489 c-3 -19 -5 -35 -4 -36 1 -1 408 -3 904 -5 896 -3 902 -3
902 17 -1 51 47 49 -908 53 l-889 5 -5 -34z"/>
<path d="M3237 2329 c-2 -19 -4 -35 -3 -36 1 -1 419 -4 929 -5 l927 -3 -6 30
c-3 17 -8 32 -11 35 -3 3 -415 7 -918 9 l-912 3 -6 -33z"/>
<path d="M3218 2165 l-4 -35 951 0 952 0 -5 28 -4 29 -135 6 c-75 4 -499 7
-943 7 l-808 0 -4 -35z"/>
<path d="M3208 2033 c6 -2 18 -2 25 0 6 3 1 5 -13 5 -14 0 -19 -2 -12 -5z"/>
<path d="M3415 1240 l-80 -6 102 -2 c59 -1 104 2 108 8 6 11 3 11 -130 0z"/>
</g>
</svg>
