<?xml version="1.0" encoding="UTF-8"?>
<svg version="1.1" viewBox="0 0 1600 840" width="1280" height="1280" xmlns="http://www.w3.org/2000/svg">
<path transform="translate(0)" d="m0 0h1600v840h-1600v-840z" fill="#FCFDFF"/>
<path transform="translate(773 314)" d="m0 0c1.09 0.00616 1.09 0.00616 2.21 0.0125 1.24 0.00193 1.24 0.00193 2.51 0.00391 1.35 0.0193 1.35 0.0193 2.72 0.0391 0.921 0.00645 1.84 0.0129 2.79 0.0195 10.3 0.112 20.6 0.606 31 1.17 0.606 2.4 1.21 4.79 1.81 7.19 0.166 0.654 0.331 1.31 0.502 1.98 2.85 11.3 5.36 22.8 7.81 34.2 0.396 1.83 0.396 1.83 0.801 3.69 2.12 9.88 2.12 9.88 2.63 13.9 0.356 3.03 0.356 3.03 1.39 5.84 1.42 4.28 2.14 8.62 2.93 13.1 1.18 6.44 2.47 12.8 4.12 19.1 1.85 7.11 3.24 14.3 4.56 21.5 1.07 5.76 2.32 11.4 3.92 17.1 0.599 2.87 0.601 5.55 0.516 8.47 1.32 0.33 2.64 0.66 4 1 0.121-1 0.242-2 0.367-3.04 0.169-1.34 0.338-2.68 0.508-4.03 0.0786-0.657 0.157-1.31 0.238-1.99 0.41-3.2 0.942-6.14 1.83-9.25 1.66-5.81 2.54-11.7 3.55-17.7 1.3-7.4 1.3-7.4 2.5-11 1.52-4.61 2.16-9.35 2.93-14.1 1.19-7.09 2.48-14.1 4.35-21 1.06-4.26 1.81-8.58 2.59-12.9 0.743-4.07 1.59-8.08 2.56-12.1 1.66-6.92 2.86-13.9 4.03-20.9 2.6-15 2.6-15 5.53-18 1.37-0.103 2.75-0.138 4.12-0.145 1.31-0.00957 1.31-0.00957 2.65-0.0193 0.951-0.00111 1.9-0.00223 2.88-0.00337 1.46-0.00499 1.46-0.00499 2.94-0.0101 2.06-0.00507 4.11-0.00741 6.17-0.00725 3.16-0.00219 6.31-0.0203 9.47-0.0393 1.99-0.00293 3.99-0.00492 5.98-0.00586 0.949-0.00719 1.9-0.0144 2.88-0.0218 0.878 0.00308 1.76 0.00615 2.66 0.00932 0.774-0.00143 1.55-0.00285 2.35-0.00432 1.9 0.247 1.9 0.247 3.9 2.25 0.559 2.47 1.01 4.89 1.4 7.39 0.185 1.11 0.185 1.11 0.373 2.25 0.395 2.39 0.779 4.78 1.16 7.17 0.504 3.11 1.01 6.22 1.53 9.33 0.126 0.762 0.252 1.52 0.381 2.31 0.946 5.61 2.16 11.1 3.49 16.6 0.994 4.35 1.66 8.74 2.29 13.2 0.317 5.3 0.317 5.3 2.38 9.75 0.478 2.77 0.909 5.53 1.31 8.31 1.07 7.06 2.31 14.1 3.75 21.1 1.13 5.51 2.2 11 3 16.6 1.53 10.5 4.32 20.8 6.94 31.1h1c0.11-0.75 0.219-1.5 0.332-2.27 0.917-5.92 2.12-11.5 3.95-17.2 1.04-3.61 1.62-7.26 2.2-11 0.527-2.54 0.527-2.54 1.45-4.74 1.28-3.36 2.03-6.75 2.76-10.3 0.15-0.701 0.3-1.4 0.455-2.12 0.476-2.22 0.947-4.45 1.42-6.67 0.473-2.24 0.948-4.48 1.43-6.72 0.297-1.39 0.591-2.78 0.882-4.17 1.02-4.75 1.02-4.75 2.13-5.86 0.342-1.42 0.634-2.86 0.902-4.3 0.168-0.877 0.336-1.75 0.51-2.66 0.347-1.85 0.694-3.7 1.04-5.55 0.847-4.4 1.82-8.35 3.55-12.5 0.523-2.34 0.998-4.7 1.44-7.06 1.29-6.71 2.85-13.3 4.56-19.9 0.247-1.02 0.495-2.04 0.75-3.09 4.38-18.1 4.38-18.1 8.25-20.9 2.41-0.328 2.41-0.328 5.06-0.25 0.878 0.0155 1.76 0.0309 2.66 0.0469 2.28 0.203 2.28 0.203 4.28 1.2 2.03 0.154 4.07 0.25 6.1 0.316 1.21 0.0419 2.42 0.0838 3.67 0.127 1.27 0.0393 2.54 0.0786 3.85 0.119 1.28 0.0432 2.56 0.0864 3.88 0.131 3.17 0.106 6.33 0.208 9.5 0.307 0.794 3.57 1.11 5.58-0.25 9-1.8 4.91-2.91 9.88-4 15-0.746 3.02-0.746 3.02-1.66 5.28-1.65 4.15-2.77 8.44-3.96 12.7-1.69 6-3.4 12-5.25 17.9-3.27 10.5-6.17 21.1-8.95 31.7-0.873 3.17-1.88 6.26-2.93 9.38-0.637 2.16-1.26 4.33-1.88 6.5-0.347 1.22-0.694 2.45-1.05 3.71-0.354 1.25-0.709 2.5-1.07 3.79-0.687 2.4-1.37 4.79-2.06 7.19-1.46 5.09-2.87 10.2-4.23 15.3-0.815 2.87-1.77 5.67-2.71 8.5-0.617 2.08-1.22 4.16-1.81 6.25-0.344 1.21-0.688 2.42-1.04 3.67-0.824 2.92-1.64 5.85-2.45 8.78-0.22 0.796-0.44 1.59-0.667 2.41-0.429 1.55-0.856 3.11-1.28 4.67-1.13 4.12-2.39 8.17-3.75 12.2-0.855 2.83-1.68 5.66-2.5 8.5-0.426 1.47-0.853 2.94-1.28 4.41-0.186 0.643-0.373 1.29-0.564 1.95-0.833 2.73-1.74 5.44-2.65 8.15-5.02 0.0496-10 0.0858-15.1 0.11-1.71 0.01-3.41 0.0237-5.12 0.041-2.46 0.0244-4.91 0.0356-7.37 0.0444-0.756 0.0103-1.51 0.0206-2.29 0.0313-4.43 9.29e-4 -8.1-0.426-12.2-2.23-0.988-2.13-0.988-2.13-1.31-4.56-0.232-3.01-0.232-3.01-1.69-5.44-0.504-2.57-0.955-5.13-1.38-7.72-0.194-1.16-0.194-1.16-0.392-2.34-0.556-3.32-1.1-6.64-1.65-9.96-0.4-2.42-0.804-4.84-1.21-7.26-0.123-0.757-0.246-1.51-0.373-2.29-0.33-3.51-0.33-3.51-2-6.42-0.284-1.47-0.514-2.95-0.719-4.44-0.191-1.34-0.191-1.34-0.387-2.71-0.263-1.9-0.526-3.8-0.789-5.7-0.191-1.34-0.191-1.34-0.387-2.71-0.114-0.826-0.228-1.65-0.346-2.5-0.186-1.93-0.186-1.93-1.37-2.93-0.467-2.25-0.88-4.5-1.27-6.76-0.121-0.695-0.242-1.39-0.367-2.1-0.26-1.5-0.519-2.99-0.775-4.49-0.4-2.33-0.805-4.66-1.21-6.99-0.541-3.1-1.08-6.2-1.62-9.3-1.01-5.81-2.03-11.6-3.07-17.4-0.159-0.908-0.318-1.82-0.482-2.75-0.39-3.92-0.39-3.92-2.21-7.19-0.345-1.68-0.635-3.37-0.902-5.07-0.168-1.04-0.336-2.09-0.51-3.16-0.173-1.1-0.347-2.2-0.525-3.33-1.09-6.9-2.24-13.7-4.06-20.4-2.39 3.58-3.5 6.45-4.13 10.7-0.249 1.59-0.249 1.59-0.504 3.22-0.161 1.1-0.322 2.2-0.488 3.33-0.333 2.19-0.668 4.39-1.01 6.58-0.215 1.45-0.215 1.45-0.434 2.93-0.433 2.24-0.433 2.24-1.43 3.24-0.519 2.85-0.995 5.7-1.44 8.56-0.245 1.59-0.494 3.17-0.746 4.75-0.109 0.706-0.218 1.41-0.33 2.14-0.535 2.8-1.24 5.54-1.94 8.3-1 4.11-1.81 8.26-2.64 12.4-0.394 1.95-0.789 3.89-1.18 5.84-0.613 3.04-1.23 6.07-1.84 9.11-0.595 2.95-1.19 5.91-1.79 8.86-0.18 0.901-0.361 1.8-0.546 2.73-0.984 4.85-2.16 9.55-3.55 14.3-0.289 1.37-0.555 2.74-0.781 4.12-0.12 0.708-0.24 1.42-0.363 2.15-0.117 0.716-0.235 1.43-0.355 2.17-0.796 4.83-1.72 9.55-2.95 14.3-1.46 5.96-2.58 12-3.79 18-0.213 1.04-0.427 2.09-0.646 3.16-0.192 0.949-0.383 1.9-0.58 2.88-0.541 2.19-0.541 2.19-1.54 3.19-1.41 0.0997-2.83 0.131-4.24 0.133-0.893 0.00193-1.79 0.00387-2.71 0.00586-0.966-0.00451-1.93-0.00902-2.93-0.0137-1.47-0.0029-1.47-0.0029-2.97-0.00586-9.41-0.0545-18.8-0.512-28.2-1.12-3.2-6.91-4.89-13.7-6.19-21.2-0.763-3.59-1.81-6.89-3-10.3-1.82-5.56-3.13-11.3-4.55-16.9-1.15-4.48-2.33-8.9-3.84-13.3-1.33-3.87-2.18-7.71-2.91-11.8-0.906-4.82-2.02-9.4-3.69-14-1.09-3.35-1.92-6.75-2.75-10.2-1.57-6.45-3.33-12.8-5.19-19.2-0.95-3.4-1.72-6.8-2.45-10.3-0.446-2.08-0.446-2.08-1.43-4.88-1.06-3.19-1.77-6.36-2.44-9.66-0.551-2.45-0.551-2.45-1.51-5.18-1.14-3.42-2.01-6.85-2.86-10.4-4.1-16.7-4.1-16.7-8.81-33.2-1.12-3.67-2.19-7.36-3.19-11.1-0.275-1-0.549-2-0.832-3.03-0.117-0.815-0.235-1.63-0.355-2.47 2-2 2-2 3.81-2.24z" fill="#000002"/>
<path transform="translate(387 311)" d="m0 0c1.3-0.0385 1.3-0.0385 2.62-0.0778 0.936-0.0148 1.87-0.0295 2.84-0.0448 0.962-0.0161 1.92-0.0323 2.91-0.0489 2.04-0.0277 4.08-0.0491 6.12-0.0648 3.12-0.0344 6.23-0.122 9.34-0.21 1.98-0.0203 3.96-0.0373 5.94-0.0508 1.4-0.0525 1.4-0.0525 2.82-0.106 2.64 0.0177 4.72 0.12 7.22 0.958 2.33 2.39 3.65 4.97 5 8 0.637 1.24 1.27 2.47 1.91 3.7 0.565 1.17 1.13 2.34 1.71 3.55 1.88 3.9 3.77 7.31 6.38 10.8 1.01 1.94 1.99 3.9 2.94 5.88 2.39 4.89 2.39 4.89 5.25 9.5 1.92 2.78 3.33 5.59 4.81 8.62 1.21 2.23 2.45 4.44 3.69 6.66 1.24 2.21 2.46 4.43 3.69 6.66 1.94 3.5 3.96 6.94 6 10.4 3.31 5.63 6.21 11.4 9.05 17.3 1.36 2.61 2.81 4.7 4.58 7.03 0.929 1.8 1.82 3.61 2.69 5.44 2.83 5.77 6.04 11.1 9.48 16.6 1.79 2.94 3.3 5.93 4.83 9.01 1.56 2.63 3.17 5.23 4.79 7.83 1.21 2.17 1.21 2.17 1.21 4.17 0.99 0.33 1.98 0.66 3 1 0.639-20.7 1.07-41.5 1.13-62.2 0.0104-3.26 0.0242-6.52 0.0393-9.79 0.0099-2.19 0.0198-4.38 0.0297-6.57 0.00491-1.09 0.00982-2.17 0.0149-3.29 0.0237-5.61 0.0379-11.2 0.0364-16.8-7.83e-4 -5.54 0.0223-11.1 0.0619-16.6 0.0104-2.09 0.012-4.18 0.00435-6.26-0.00955-2.88 0.0114-5.76 0.0397-8.64-0.0102-0.852-0.0204-1.7-0.0309-2.58 0.0419-2.36 0.0419-2.36 0.674-6.21 4.02-3.54 7.99-3.35 13.1-3.11 1.15 0.0361 1.15 0.0361 2.33 0.0729 1.61 0.0535 3.23 0.114 4.84 0.182 2.48 0.104 4.96 0.186 7.44 0.264 1.57 0.0547 3.14 0.111 4.71 0.168 0.745 0.0261 1.49 0.0522 2.26 0.0792 5.2 0.225 5.2 0.225 6.32 1.34 0.104 3.05 0.139 6.07 0.133 9.12 0.00205 1.49 0.00205 1.49 0.00414 3.02 0.00209 3.43-0.00448 6.86-0.0119 10.3-0.00122 1.2-0.00244 2.41-0.00369 3.65-0.0298 25.8-0.272 51.6-0.527 77.4-0.0308 3.13-0.0608 6.26-0.0906 9.39-0.208 21.6-0.477 43.1-0.914 64.7-0.0409 2.03-0.0804 4.05-0.119 6.08-0.0534 2.8-0.113 5.6-0.174 8.39-0.0149 0.822-0.0299 1.64-0.0452 2.49-0.101 4.25-0.426 8.28-1.25 12.5-5.91 0.124-11.8 0.214-17.7 0.275-2.01 0.0251-4.02 0.0593-6.03 0.103-2.89 0.0607-5.78 0.089-8.67 0.111-0.898 0.0258-1.8 0.0516-2.72 0.0782-6.24 0.00281-6.24 0.00281-9.35-2.88-1.51-2.69-2.92-5.41-4.25-8.19-1.6-3.17-3.36-6.23-5.13-9.3-2.88-4.99-5.69-10-8.43-15.1-5.07-9.31-10.2-18.6-15.6-27.7-2.18-3.69-4.17-7.41-6.04-11.3-1.88-3.66-4.01-7.16-6.11-10.7-2.17-3.75-4.23-7.54-6.3-11.3-3.03-5.56-6.1-11.1-9.18-16.6-0.638-1.15-1.28-2.31-1.93-3.5-3.32-5.98-6.69-11.9-10.3-17.7-1.83-3.07-3.49-6.22-5.14-9.39-1.2-2.12-1.2-2.12-4.18-3.81 0.00222 0.561 0.00444 1.12 0.00673 1.7 0.131 35-0.078 70-0.507 105-0.012 0.977-0.0239 1.95-0.0362 2.96-0.149 12.1-0.303 24.2-0.464 36.3-5.68 0.0246-11.4 0.0428-17 0.0549-1.93 0.00504-3.87 0.0119-5.8 0.0205-2.77 0.0121-5.55 0.0178-8.32 0.0222-1.3 0.00774-1.3 0.00774-2.64 0.0156-2.07 1.95e-4 -4.14-0.0512-6.21-0.113-1.78-1.78-1.13-4.15-1.14-6.52 0.00238-0.809 0.00475-1.62 0.0072-2.45-0.00103-0.864-0.00206-1.73-0.00312-2.62-0.00113-2.97 0.00622-5.94 0.0143-8.92 0.00146-1.05 0.00292-2.1 0.00443-3.19 0.0449-30.4 0.413-60.8 0.791-91.2 0.123-9.9 0.239-19.8 0.345-29.7 0.0763-7.07 0.16-14.1 0.25-21.2 0.0529-4.19 0.103-8.37 0.144-12.6 0.039-3.89 0.0873-7.78 0.143-11.7 0.0187-1.43 0.0341-2.85 0.0459-4.28 0.0165-1.94 0.0462-3.88 0.0767-5.82 0.0129-1.08 0.0258-2.17 0.0391-3.29 0.479-4.4 2.5-4.8 6.46-4.9z" fill="#000002"/>
<path transform="translate(602 312)" d="m0 0c1.46-0.00461 1.46-0.00461 2.95-0.00932 1.05 0.00719 2.1 0.0144 3.18 0.0218 1.62 6.87e-4 1.62 6.87e-4 3.27 0.00139 2.28 0.00302 4.56 0.0109 6.84 0.0233 3.5 0.0183 7 0.0205 10.5 0.0203 2.21 0.00492 4.43 0.0107 6.64 0.0176 1.05 0.00111 2.1 0.00223 3.19 0.00337 0.971 0.00638 1.94 0.0128 2.94 0.0193 0.857 0.00381 1.71 0.00762 2.6 0.0116 2.08 0.134 2.08 0.134 4.08 1.13 3.05 0.118 6.07 0.175 9.12 0.189 0.945 0.00829 1.89 0.0166 2.86 0.0251 2.06 0.0174 4.11 0.0326 6.17 0.0458 3.25 0.021 6.5 0.048 9.74 0.0767 8.06 0.0699 16.1 0.129 24.2 0.189 6.81 0.0508 13.6 0.106 20.4 0.166 3.21 0.0267 6.42 0.0474 9.63 0.068 1.96 0.0166 3.91 0.0335 5.87 0.0507 0.9 0.00418 1.8 0.00837 2.73 0.0127 6.14 0.0629 6.14 0.0629 7.26 1.18 0.0886 2.67 0.115 5.31 0.0977 7.97-0.00212 1.2-0.00212 1.2-0.00429 2.42-0.00562 2.56-0.0182 5.12-0.0309 7.67-0.00501 1.73-0.00958 3.46-0.0137 5.19-0.011 4.25-0.0283 8.5-0.0488 12.7-0.823-0.00277-0.823-0.00277-1.66-0.00559-13.3-0.0442-26.7-0.0771-40-0.098-6.45-0.0105-12.9-0.0246-19.4-0.0473-6.22-0.0217-12.4-0.0337-18.7-0.0389-2.38-0.0037-4.76-0.0109-7.13-0.0217-3.32-0.0145-6.65-0.0165-9.97-0.0156-1.48-0.0108-1.48-0.0108-3-0.0218-1.36 0.00412-1.36 0.00412-2.74 0.00833-0.786-0.00184-1.57-0.00369-2.38-0.00559-2.35 0.128-2.35 0.128-5.04 2.25-0.338 3.04-0.489 5.89-0.512 8.95-0.018 0.885-0.0359 1.77-0.0544 2.68-0.0543 2.83-0.0881 5.66-0.121 8.5-0.0332 1.92-0.0676 3.84-0.104 5.75-0.0851 4.71-0.152 9.41-0.209 14.1 1.89 0.0343 1.89 0.0343 3.83 0.0692 11.9 0.215 23.8 0.436 35.6 0.661 6.11 0.116 12.2 0.23 18.3 0.34 5.89 0.106 11.8 0.217 17.7 0.331 2.25 0.0428 4.5 0.0838 6.75 0.123 3.14 0.0552 6.28 0.116 9.43 0.179 0.941 0.0151 1.88 0.0302 2.85 0.0458 6.42 0.137 6.42 0.137 7.53 1.25 0.0885 2.59 0.115 5.16 0.0977 7.75-0.00212 1.16-0.00212 1.16-0.00429 2.35-0.00562 2.49-0.0182 4.97-0.0309 7.46-0.00501 1.68-0.00958 3.36-0.0137 5.04-0.011 4.13-0.0283 8.26-0.0488 12.4-1.25-0.00222-2.5-0.00444-3.79-0.00673-11.8-0.0202-23.5-0.0352-35.3-0.0451-6.05-0.00523-12.1-0.0123-18.1-0.0236-5.83-0.0108-11.7-0.0168-17.5-0.0194-2.23-0.00185-4.46-0.00548-6.69-0.0109-3.11-0.00721-6.22-0.00826-9.33-0.0078-0.931-0.0036-1.86-0.00719-2.82-0.0109-4.06-0.407-4.06-0.407-7.47 1.12v51c37 0.66 73.9 1.32 112 2 1.56 3.12 1.12 6.43 1.1 9.85-0.00212 1.16-0.00212 1.16-0.00429 2.35-0.0056 2.48-0.0182 4.95-0.0309 7.43-0.00501 1.68-0.00958 3.35-0.0137 5.03-0.011 4.11-0.0283 8.23-0.0488 12.3-2.41 1.2-3.89 1.12-6.58 1.11-0.962-0.0011-1.92-0.00221-2.91-0.00335-1.06-0.00687-2.11-0.0137-3.2-0.0208-1.11-0.00386-2.22-0.00772-3.37-0.0117-13.2-0.0606-26.5-0.248-39.7-0.447-2.12-0.0319-4.24-0.0633-6.36-0.0945-7.42-0.109-14.8-0.221-22.3-0.334-6.9-0.105-13.8-0.205-20.7-0.303-5.96-0.0849-11.9-0.173-17.9-0.265-3.54-0.0544-7.09-0.107-10.6-0.156-3.92-0.0542-7.84-0.116-11.8-0.179-1.17-0.0151-2.35-0.0302-3.55-0.0458-1.06-0.0182-2.12-0.0364-3.21-0.0552-0.925-0.0138-1.85-0.0277-2.8-0.0419-2.08-0.154-2.08-0.154-3.08-1.15-0.0996-1.6-0.128-3.2-0.129-4.8-0.0031-1.06-0.0062-2.11-0.0094-3.2 0.00197-1.19 0.00395-2.38 0.00598-3.6-0.00211-1.91-0.00211-1.91-0.00427-3.86-0.00299-3.62 0.00156-7.23 0.00811-10.8 0.00397-2.31 0.00649-4.62 0.00867-6.93 0.0142-13.3 0.0631-26.5 0.12-39.8 0.00532-1.24 0.0106-2.47 0.0161-3.75 0.074-17 0.163-33.9 0.275-50.9 0.00955-1.45 0.0191-2.91 0.0287-4.36 0.00473-0.718 0.00946-1.44 0.0143-2.18 0.0331-5.09 0.0613-10.2 0.0876-15.3 0.0326-6.29 0.0725-12.6 0.121-18.9 0.0251-3.26 0.0461-6.52 0.0608-9.79 0.0168-3.58 0.0458-7.17 0.0778-10.7 0.00216-1.05 0.00432-2.1 0.00654-3.19 0.108-9.41 0.108-9.41 2.31-14 3.23-2.15 4.09-2.25 7.81-2.24z" fill="#000002"/>
<path transform="translate(1150 314)" d="m0 0c1.13 0.105 1.13 0.105 2.28 0.212 5.47 0.61 10.4 2.08 15.5 3.98 1.02 0.353 2.03 0.706 3.08 1.07 11.4 4.39 20.4 11.4 27.9 20.9 0.701 0.825 1.4 1.65 2.12 2.5 8.55 11.4 13.5 24.1 12.9 38.5-13.4 2.44-27.5 0.679-41 0-0.267-0.673-0.534-1.35-0.809-2.04-0.354-0.89-0.709-1.78-1.07-2.7-0.349-0.879-0.699-1.76-1.06-2.66-4.11-10.1-8.47-15.9-18.6-20.6-12.3-5.1-28.6-5.96-41.1-1-1.84 0.931-3.63 1.94-5.41 2.97h-2c-0.268 0.598-0.536 1.2-0.812 1.81-1.19 2.2-2.43 3.43-4.19 5.19-3.79 5.54-4.36 10.3-4 17 0.935 4.79 3.85 6.91 7.68 9.59 10.9 6.65 24.4 8.97 36.7 12 4.21 1.04 8.27 2.28 12.4 3.72 2.83 0.89 5.68 1.51 8.57 2.15 10.4 2.35 20.1 5.94 29.7 10.6 1.06 0.476 1.06 0.476 2.15 0.961 10.3 4.74 19 12.1 23.4 22.7 6.99 19.6 6.39 40.5-2.51 59.3h-2c-0.268 0.804-0.536 1.61-0.812 2.44-0.392 0.846-0.784 1.69-1.19 2.56-0.99 0.33-1.98 0.66-3 1-0.3 0.781-0.601 1.56-0.91 2.37-1.32 3.2-2.6 4-5.53 5.76-2.89 1.76-5.2 3.46-7.56 5.88-4.48 2.5-9.16 4.33-14 6-1.41 0.499-1.41 0.499-2.84 1.01-20 6.67-41.5 6.17-62.2 3.68-0.996-0.118-1.99-0.235-3.02-0.356-5.52-0.739-9.97-1.91-15-4.33-1.62-0.608-3.25-1.21-4.88-1.81-5.23-2.1-9.61-4.83-14.1-8.19-0.923-0.683-1.85-1.37-2.8-2.07-6.06-4.7-10.4-9.26-14.2-15.9-0.565-0.928-0.565-0.928-1.14-1.88-6.56-11-8.3-21.5-7.86-34.1 9.81-4.9 29.3-0.524 40 0 1.24 2.9 2.01 5.08 2.31 8.25 1.17 6.37 3.36 10.8 8.44 15 11.9 8.15 21.3 9.93 35.5 9.94 1.07 0.0122 2.14 0.0245 3.24 0.0371 10.5 0.0191 24.2-0.504 32.4-7.97 5.39-6.17 5.49-11.4 5.38-19.3-0.372-4.88-1.39-7.13-4.3-10.9v-2c-0.715-0.281-1.43-0.562-2.17-0.852-1.81-0.733-3.6-1.5-5.38-2.3-6.19-2.75-12.3-4.71-18.9-6.26-6.78-1.6-13.4-3.53-20.1-5.49-4.78-1.39-9.56-2.63-14.4-3.65-3.77-0.86-7.38-2.15-11-3.46-0.598-0.212-1.2-0.423-1.81-0.642-11.6-4.12-21.5-8.71-31.2-16.4-1.36-0.99-1.36-0.99-2.75-2-6.79-6.03-10.9-15.7-11.4-24.7-0.0458-3.15-0.0741-6.29-0.0889-9.44-0.0309-1.62-0.0309-1.62-0.0625-3.27-0.0777-16.1 5.85-29.7 16.9-41.4 0.784-0.743 1.57-1.49 2.38-2.25 0.568-0.615 1.14-1.23 1.72-1.86 20.3-19.1 50.3-19.9 76.5-17.3z" fill="#000002"/>
<path transform="translate(946 573)" d="m0 0c1.53 0.0119 3.07 0.0295 4.6 0.0514 1.25 0.012 1.25 0.012 2.53 0.0242 2.78 0.028 5.57 0.0635 8.35 0.0993 1.94 0.0218 3.88 0.0432 5.81 0.0644 4.08 0.0456 8.16 0.0948 12.2 0.147 5.19 0.0657 10.4 0.123 15.6 0.178 4.01 0.0432 8.03 0.0905 12 0.139 1.91 0.0227 3.82 0.0442 5.73 0.0645 30.3 0.329 30.3 0.329 34.7 3.32-1.42 2.21-2.83 4.42-4.25 6.62-0.396 0.617-0.791 1.23-1.2 1.87-0.792 1.23-1.59 2.47-2.38 3.7-0.772 1.2-1.53 2.4-2.29 3.61-0.909 1.43-1.89 2.82-2.88 4.2h-2c-0.66 1.65-1.32 3.3-2 5h-2c-0.0619 0.557-0.124 1.11-0.188 1.69-1.15 3.28-3.32 4.93-5.81 7.31-0.722 0.928-1.44 1.86-2.19 2.81-0.598 0.722-1.2 1.44-1.81 2.19h-2c-0.268 0.598-0.536 1.2-0.812 1.81-1.19 2.19-2.28 3.6-4.19 5.19h-2c-0.227 0.557-0.454 1.11-0.688 1.69-1.69 2.98-3.83 4.94-6.31 7.31-0.505 0.526-1.01 1.05-1.53 1.59-5.13 5.33-10.9 11.3-17.7 14.4-2.12 0.892-2.12 0.892-2.76 3.96-2.43 1.82-2.43 1.82-5.44 3.69-1.48 0.934-1.48 0.934-3 1.89-2.57 1.43-2.57 1.43-4.57 1.43-0.495 1.49-0.495 1.49-1 3-3.06 1.19-3.06 1.19-6 2v2c-0.464 0.257-0.928 0.513-1.41 0.777-3.75 2.08-7.5 4.16-11.2 6.28-4.11 2.33-8.24 4.64-12.4 6.95-0.675 0.377-1.35 0.753-2.05 1.14-13 7.2-13 7.2-20.1 9.28-2.11 0.608-2.11 0.608-4.97 2.14-3.23 1.61-6.41 2.46-9.88 3.44-1 0.452-2.01 0.905-3.04 1.37-4.81 2.1-9.84 3.35-14.9 4.69-0.951 0.256-1.9 0.512-2.88 0.775-2.72 0.73-5.45 1.45-8.18 2.16-0.746 0.195-1.49 0.39-2.26 0.591-3.91 1-7.81 1.83-11.8 2.47-1.02 0.165-2.04 0.33-3.09 0.5-2.32 0.357-4.64 0.689-6.97 1-2.81 0.277-2.81 0.277-4.88 1.44 0.379-5.43 1.98-7.44 6-11l5-5c1.14-1.18 1.14-1.18 2.31-2.38 2.15-2.1 4.33-4.01 6.62-5.94 3.45-2.98 6.06-6.14 8.7-9.85 1.88-2.54 4.11-4.64 6.36-6.84 1.55-1.76 3.06-3.55 4.57-5.35 1.43-1.65 1.43-1.65 2.83-3.02 2.18-2.22 4.13-4.6 6.1-7 0.773-0.936 1.55-1.87 2.34-2.84 1.94-2.52 3.55-5.05 5.16-7.79 0.981-1.02 1.98-2.02 3-3 0.33-0.66 0.66-1.32 1-2h2c0.267-0.733 0.534-1.47 0.809-2.22 1.17-2.74 2.5-4.82 4.25-7.21 4.55-6.37 8.75-12.9 12.9-19.6 0.412-0.648 0.824-1.3 1.25-1.96 6.49-10.2 13-20.5 18.4-31.4 1.84-3.65 1.84-3.65 5.71-3.75z" fill="#000002"/>
<path transform="translate(554 570)" d="m0 0c1.14 0.00277 1.14 0.00277 2.3 0.00559 0.869-0.00275 1.74-0.0055 2.63-0.00833 0.956 0.00719 1.91 0.0144 2.9 0.0218 1-2.92e-4 2.01-5.84e-4 3.05-8.85e-4 3.33 0.0014 6.67 0.017 10 0.0326 2.31 0.00373 4.61 0.00658 6.92 0.00858 6.08 0.00765 12.2 0.0273 18.2 0.0494 6.2 0.0204 12.4 0.0296 18.6 0.0397 12.2 0.0215 24.3 0.0556 36.5 0.0977 0.385 0.824 0.385 0.824 0.779 1.66 1.18 2.51 2.35 5.02 3.53 7.52 0.404 0.864 0.808 1.73 1.22 2.62 1.98 4.19 3.96 8.28 6.46 12.2 0.388 0.611 0.776 1.22 1.18 1.85 0.375 0.585 0.75 1.17 1.14 1.77 2 3.18 3.8 6.43 5.56 9.75 2.48 4.59 5.24 8.82 8.29 13.1 1.91 2.69 3.72 5.43 5.52 8.2 8.09 12.2 17.1 23.8 26.5 35 1.78 2.36 1.78 2.36 1.78 4.36 0.99 0.33 1.98 0.66 3 1 1.54 1.69 3.01 3.45 4.44 5.25 1.14 1.43 1.14 1.43 2.31 2.89 1.44 1.83 2.87 3.66 4.3 5.51 1.82 2.19 3.64 3.92 5.83 5.73 3.26 2.78 6.03 5.69 8.74 9 1.54 1.88 1.54 1.88 4.2 4.32 2.22 2.34 2.59 3.28 3.19 6.31-16.8-0.343-33.3-5.29-49-11-0.664-0.239-1.33-0.477-2.01-0.723-17.3-6.22-34.2-13.9-50-23.3-0.551-0.327-1.1-0.653-1.67-0.99-10-5.98-19.4-12.6-28.6-19.7-1.69-1.25-3.42-2.39-5.2-3.51-0.838-0.585-1.68-1.17-2.54-1.77v-2c-0.804-0.268-1.61-0.536-2.44-0.812-0.846-0.392-1.69-0.784-2.56-1.19-0.33-0.99-0.66-1.98-1-3-1.88-1.06-1.88-1.06-4-2-4.44-3.28-8.1-7.12-11.6-11.4-1.99-2.36-4.18-4.49-6.39-6.65-10.9-10.7-10.9-10.7-14-15v-2h-2c-1.33-1.76-1.33-1.76-2.81-4.12-1.83-2.85-3.66-5.56-5.88-8.12-2.11-2.51-3.66-4.93-5.31-7.75-1.29-1.77-2.59-3.52-3.91-5.25-1.21-1.95-1.82-3.46-2.09-5.75 2-2 2-2 3.85-2.25z" fill="#000002"/>
<path transform="translate(854,132)" d="m0 0c12 1.39 24.5 5.31 36 9 0.964 0.308 1.93 0.616 2.92 0.934 9.61 3.13 18.9 6.85 28.1 11.1 0.624 0.284 1.25 0.568 1.89 0.86 8.67 3.96 17 8.05 25.1 13.1 1.16 0.652 2.33 1.3 3.5 1.94 3.78 2.14 7.27 4.68 10.8 7.2 3.66 2.54 7.45 4.87 11.2 7.19 2.47 1.69 4.36 3.53 6.45 5.68 1.53 1.25 3.07 2.48 4.62 3.69 4.49 3.55 8.77 7.29 13 11.2 2.17 1.96 4.39 3.84 6.63 5.72 3.33 2.89 5.84 6.03 8.4 9.61 1.88 2.54 4.1 4.62 6.35 6.83 6.27 6.61 11.8 13.5 17 21 0.608 0.859 1.22 1.72 1.84 2.6 1.73 2.46 3.45 4.93 5.16 7.4 0.572 0.808 1.14 1.62 1.73 2.45 0.812 1.17 0.812 1.17 1.64 2.36 0.723 1.03 0.723 1.03 1.46 2.08 1.31 2.37 1.69 4.46 2.16 7.11-26.5 0.105-53.1 0.0872-79.6-0.438-1.61-0.0295-1.61-0.0295-3.25-0.0595-3.01-0.0566-6.03-0.12-9.04-0.187-0.897-0.0167-1.79-0.0334-2.72-0.0507-6.14-0.15-6.14-0.15-8.37-1.27-2.15-3.03-3.49-6.18-4.81-9.62-1.82-4.66-4.03-8.94-6.48-13.3-1.28-2.3-2.52-4.6-3.73-6.93-0.348-0.666-0.697-1.33-1.06-2.02-0.68-1.3-1.36-2.61-2.03-3.91-1.98-3.76-4.23-6.91-6.89-10.2-1.01-1.73-2.02-3.46-3-5.21-5.1-9.1-11.1-17.5-17.6-25.7-2.38-3.05-4.71-6.13-7-9.25-0.641-0.869-1.28-1.74-1.94-2.63-1.5-2.24-1.5-2.24-2.5-5.24h-2c-0.268-0.598-0.536-1.2-0.812-1.81-1.2-2.21-2.4-3.44-4.19-5.19-1.05-1.18-2.09-2.37-3.12-3.56-5.17-5.94-10.4-11.8-15.8-17.6-0.738-0.794-0.738-0.794-1.49-1.6-0.955-1.03-1.91-2.05-2.88-3.07-2.68-2.88-4.82-5.75-6.72-9.2 0.33-0.33 0.66-0.66 1-1z" fill="#000002"/>
<path transform="translate(754,132)" d="m0 0c-1.27 2.04-2.61 4.04-4 6h-2c-0.34 0.835-0.34 0.835-0.688 1.69-1.69 2.97-3.84 4.96-6.31 7.31-3.47 3.38-6.62 6.88-9.67 10.6-0.44 0.447-0.879 0.895-1.33 1.36h-2c-0.268 0.639-0.536 1.28-0.812 1.94-1.19 2.06-1.19 2.06-4.19 3.06-0.684 1.66-1.35 3.33-2 5-1.88 2.35-1.88 2.35-4 4.62-2.24 2.42-4.16 4.62-6 7.38h-2c-0.238 0.712-0.477 1.42-0.723 2.16-1.48 3.3-3.37 5.6-5.71 8.34-2.32 2.72-4.42 5.25-6.22 8.34-0.442 0.712-0.884 1.42-1.34 2.16h-2c-0.268 0.722-0.536 1.44-0.812 2.19-1.19 2.81-2.46 5.3-4.19 7.81h-2c-0.34 0.959-0.34 0.959-0.688 1.94-1.8 4.2-4.05 8.1-6.31 12.1h-2c-0.231 0.82-0.461 1.64-0.699 2.48-1.58 4.27-3.75 7.9-6.11 11.8-3.28 5.46-6.39 10.9-9.17 16.7-4.25 8.7-4.25 8.7-7.02 10.1-1.34 0.0914-2.69 0.122-4.04 0.12-1.27 0.00206-1.27 0.00206-2.56 0.00417-0.928-0.0036-1.86-0.00719-2.81-0.0109-1.46 2.19e-4 -1.46 2.19e-4 -2.96 4.43e-4 -3.24-6.99e-4 -6.47-0.00849-9.71-0.0163-2.24-0.00186-4.48-0.00329-6.72-0.00429-5.9-0.00382-11.8-0.0137-17.7-0.0247-6.02-0.0102-12-0.0148-18.1-0.0198-11.8-0.0107-23.6-0.0278-35.4-0.0488 0.632-5.34 1.45-8.26 4.81-12.5 2.35-3.05 4.57-5.97 6.38-9.38 1.93-3.32 4.09-5.42 6.81-8.12 1.52-1.81 3.02-3.65 4.5-5.5 2.98-3.74 6.1-7.13 9.5-10.5 1.61-1.81 3.22-3.62 4.81-5.44 3.53-3.92 6.99-7.1 11.3-10.1 2.84-2.22 5-4.93 7.24-7.74 1.77-1.87 3.34-2.63 5.64-3.73 1.02-0.976 2.02-1.98 3-3 2.61-2.08 5.31-4.03 8-6 0.663-0.495 1.33-0.99 2.01-1.5 4.75-3.5 4.75-3.5 6.99-3.5v-2c2.55-1.73 2.55-1.73 5.88-3.62 1.09-0.632 2.18-1.26 3.3-1.91 2.82-1.46 2.82-1.46 4.82-1.46v-2c14-7.82 28.3-14.8 43-21 0.879-0.379 1.76-0.758 2.66-1.15 6.39-2.67 13-4.69 19.6-6.7 2.19-0.674 4.38-1.37 6.54-2.13 4.63-1.47 9.34-2.55 14.1-3.64 0.955-0.229 1.91-0.459 2.89-0.695 5.56-1.28 10.5-1.94 16.2-1.68z" fill="#000002"/>
<path transform="translate(813,130)" d="m0 0c3.37 0.547 5.08 1.05 8 3v2c0.639 0.268 1.28 0.536 1.94 0.812 2.06 1.19 2.06 1.19 3.06 4.19 0.66 0.33 1.32 0.66 2 1 0.66 0.33 1.32 0.66 2 1 0.33 0.99 0.66 1.98 1 3 1.32 0.69 2.66 1.35 4 2 1.46 1.52 1.46 1.52 2.81 3.25 2.02 2.46 4.01 4.52 6.5 6.5 4.03 3.33 7.1 7.3 10.3 11.4 2.3 2.82 4.69 5.51 7.15 8.19 2.35 2.57 4.57 5.06 6.44 8 1.68 2.78 1.68 2.78 4.12 5.06 3.28 3.28 5.9 6.87 8.62 10.6 0.597 0.815 1.19 1.63 1.81 2.47 2.07 2.84 4.13 5.68 6.19 8.53 0.419 0.577 0.838 1.15 1.27 1.75 1.33 1.83 2.66 3.67 3.98 5.5 0.412 0.566 0.824 1.13 1.25 1.72 2.36 3.29 4.47 6.63 6.44 10.2 1.17 2.05 2.4 4.06 3.64 6.06 4.78 7.7 9.41 15.3 13.3 23.5 1.15 2.47 1.15 2.47 3.12 5.29 0.125 2.69 0.125 2.69 0 5-22 0.0595-44.1-0.0612-66.1-0.317-3.51-0.0403-7.02-0.0747-10.5-0.104-4.32-0.0367-8.63-0.0829-12.9-0.136-1.63-0.0185-3.25-0.0336-4.88-0.0453-2.24-0.0168-4.48-0.0457-6.72-0.0778-1.9-0.02-1.9-0.02-3.85-0.0404-2.96-0.278-2.96-0.278-4.96-2.28-0.235-2-0.235-2-0.213-4.58 0.00383-1.01 0.00765-2.02 0.0116-3.07 0.0149-1.15 0.0297-2.3 0.045-3.49 0.0081-1.25 0.0162-2.49 0.0245-3.78 0.0197-2.95 0.0467-5.9 0.078-8.86 0.0625-5.91 0.108-11.8 0.155-17.7 0.108-13.2 0.234-26.4 0.362-39.5 0.0613-6.32 0.121-12.6 0.181-19 0.117-12.3 0.236-24.6 0.355-37z" fill="#000002"/>
<path transform="translate(790,130)" d="m0 0 2 1c0.0896 22.5-0.132 44.9-0.372 67.4-0.0553 5.19-0.105 10.4-0.154 15.6-0.0393 4.07-0.0823 8.14-0.126 12.2-0.0201 1.91-0.0388 3.83-0.0561 5.74-0.0246 2.69-0.0546 5.37-0.0856 8.06-0.00576 0.753-0.0115 1.51-0.0174 2.28-0.111 8.62-0.708 17.1-1.19 25.8h-108c-1-4-1-4 0.258-6.7 0.616-0.986 1.23-1.97 1.87-2.99 0.976-1.6 0.976-1.6 1.97-3.22 0.628-1.02 1.26-2.04 1.9-3.09 0.865-1.54 1.72-3.08 2.56-4.62 4.34-7.84 9.03-15.3 14.2-22.7 2.14-3.06 4.2-6.14 6.14-9.32 1.67-2.66 2.97-4.24 5.12-6.38 0.99-1.49 0.99-1.49 2-3h2c0.218-0.678 0.436-1.36 0.66-2.05 1.74-3.83 4.15-6.81 6.78-10.1 0.49-0.62 0.981-1.24 1.49-1.88 2.25-2.82 4.51-5.46 7.08-8 1.81-2.11 3.6-4.23 5.38-6.36 0.535-0.543 1.07-1.09 1.62-1.64h2c0.257-0.746 0.515-1.49 0.78-2.26 1.27-2.85 2.52-4.39 4.74-6.55 1.04-1.02 1.04-1.02 2.1-2.07 0.724-0.699 1.45-1.4 2.19-2.12 0.712-0.699 1.42-1.4 2.16-2.12 2-1.97 4.02-3.92 6.03-5.88 2.59-2.53 5.01-5.02 7.25-7.88 2.76-3.4 6.12-5.84 9.6-8.45 1.82-1.41 3.42-2.84 5.02-4.48 2.12-2.19 2.12-2.19 5.12-4.19z" fill="#000002"/>
<path transform="translate(817 572)" d="m0 0c0.876 0.00405 1.75 0.0081 2.66 0.0123 0.922-0.0035 1.84-0.00701 2.79-0.0106 3.06-0.00883 6.13-0.00296 9.19 0.00378 2.13-0.00135 4.26-0.00329 6.38-0.0058 4.47-0.00295 8.94 0.00135 13.4 0.0107 5.71 0.0113 11.4 0.00487 17.1-0.00714 4.4-0.00725 8.8-0.00491 13.2 2.56e-4 2.11 0.00133 4.21-2.88e-4 6.32-0.00496 2.96-0.00511 5.91 0.00272 8.87 0.0138 0.862-0.00405 1.72-0.0081 2.61-0.0123 5.63 0.0388 10.7 0.836 16.2 2.27-1.76 7.36-5.94 13.8-9.75 20.3-0.436 0.741-0.872 1.48-1.32 2.25-3.63 6.09-7.66 11.8-11.9 17.4-1.2 1.68-2.38 3.37-3.56 5.06-0.563 0.807-1.13 1.61-1.71 2.45-1.21 1.74-2.42 3.49-3.62 5.23-0.615 0.889-1.23 1.78-1.86 2.7-0.552 0.803-1.1 1.61-1.67 2.43-1.42 1.91-2.86 3.49-4.58 5.13-3.05 3.43-5.96 6.93-8.77 10.6-0.49 0.634-0.981 1.27-1.49 1.92-0.994 1.29-1.98 2.58-2.96 3.88-1.22 1.58-2.49 3.11-3.78 4.62h-2c-0.213 0.541-0.425 1.08-0.645 1.64-1.85 3.21-4.39 5.57-7.04 8.11-4.24 4.14-8.26 8.33-12 12.9-0.646 0.657-0.646 0.657-1.3 1.33h-2c-0.206 0.557-0.413 1.11-0.625 1.69-1.88 3.15-4.54 5.07-7.38 7.31-3.37 2.81-6.64 5.64-9.75 8.75-2.25 2.25-2.25 2.25-5.25 4.25h-3c-0.108-33.3-0.106-66.6 0.347-99.9 0.0276-2.13 0.0514-4.25 0.0742-6.38 0.0429-3.96 0.102-7.91 0.164-11.9 0.0116-1.18 0.0231-2.36 0.035-3.58 0.0199-1.07 0.0397-2.14 0.0602-3.24 0.0133-0.933 0.0266-1.87 0.0404-2.83 0.64-5.12 4.2-4.47 8.52-4.5z" fill="#000002"/>
<path transform="translate(681,571)" d="m0 0h104c1.61 3.23 1.24 6.77 1.32 10.3 0.0209 0.843 0.0417 1.69 0.0632 2.55 0.0663 2.75 0.125 5.5 0.183 8.25 0.0421 1.88 0.0843 3.76 0.126 5.64 0.219 10.1 0.409 20.2 0.436 30.2 0.00689 1.36 0.00689 1.36 0.0139 2.75-0.0116 4.88-0.33 9.6-1.02 14.4-0.276 1.91-0.276 1.91 0.883 3.81 0.062 1.73 0.0579 3.46 0.0217 5.18-0.0201 1.08-0.0402 2.16-0.0609 3.28-0.027 1.17-0.0541 2.34-0.0819 3.55-0.0354 1.79-0.0354 1.79-0.0715 3.62-0.0768 3.83-0.161 7.66-0.245 11.5-0.0532 2.59-0.106 5.18-0.158 7.78-0.129 6.37-0.265 12.7-0.404 19.1-4.91-0.753-6.64-2.31-10-6l-2.5-2.5c-12.5-12.5-12.5-12.5-14.8-14.8-1.93-1.93-3.87-3.84-5.83-5.75-5.48-5.37-10.7-10.7-15.3-16.9-1.82-2.39-3.79-4.59-5.8-6.81-2.97-3.29-5.42-6.59-7.81-10.3-0.431-0.423-0.861-0.846-1.3-1.28-2.4-2.43-4.43-5.13-6.51-7.84-0.447-0.584-0.894-1.17-1.36-1.77-3.48-4.58-6.73-9.26-9.83-14.1-0.687-1.05-1.37-2.09-2.08-3.17-6.81-10.4-12.9-21.1-18.9-32.1-0.93-1.63-1.97-3.21-3.01-4.77v-4z" fill="#000002"/>
</svg>
